# xmcd
#
# Track frame offsets:
# 150
# 13063
# 23010
# 43341
# 63149
# 79364
# 94851
# 112488
# 131172
# 148032
#
# Disc length: 2128 seconds
#
#
# Revision: 0
# Processed by: cddbd v1.5.2PL0 Copyright (c) Steve Scherf et al.
# Submitted via: FreeRIP 2.951 
#
DISCID=91084e0a
DTITLE=Charles Valente - Ecologicamente Correto
DYEAR=1900
DGENRE=Country
TTITLE0=Sanfoneiro
TTITLE1=Trem do futuro
TTITLE2=Ecologicamente Correto
TTITLE3=Galope estradeiro
TTITLE4=Profecia Nordestina
TTITLE5=Pena penar
TTITLE6=Flor de malva
TTITLE7=Meu amigo
TTITLE8=Equador
TTITLE9=Madrugada
EXTD=Gravadora Raízes\n(0xx) 62 280-1942
EXTT0=
EXTT1=
EXTT2=
EXTT3=
EXTT4=
EXTT5=
EXTT6=
EXTT7=
EXTT8=
EXTT9=
PLAYORDER=
